solid OpenSCAD_Model
  facet normal 1 -0 0
    outer loop
      vertex 24.5 0 2
      vertex 24.5 74 0
      vertex 24.5 74 2
    endloop
  endfacet
  facet normal 1 0 0
    outer loop
      vertex 24.5 74 0
      vertex 24.5 0 2
      vertex 24.5 0 0
    endloop
  endfacet
  facet normal 0 0 -1
    outer loop
      vertex -24.5 0 0
      vertex 24.5 74 0
      vertex 24.5 0 0
    endloop
  endfacet
  facet normal -0 0 -1
    outer loop
      vertex 24.5 74 0
      vertex -24.5 0 0
      vertex -24.5 74 0
    endloop
  endfacet
  facet normal 0 0 1
    outer loop
      vertex 24.5 74 2
      vertex 22.3 71.8 2
      vertex 24.5 0 2
    endloop
  endfacet
  facet normal 0 0 1
    outer loop
      vertex 24.5 74 2
      vertex -22.3 71.8 2
      vertex 22.3 71.8 2
    endloop
  endfacet
  facet normal 0 0 1
    outer loop
      vertex -22.3 71.8 2
      vertex -24.5 74 2
      vertex -22.3 2.20001 2
    endloop
  endfacet
  facet normal -0 0 1
    outer loop
      vertex -24.5 74 2
      vertex -22.3 71.8 2
      vertex 24.5 74 2
    endloop
  endfacet
  facet normal -0 0 1
    outer loop
      vertex 22.3 2.20001 2
      vertex 24.5 0 2
      vertex 22.3 71.8 2
    endloop
  endfacet
  facet normal -0 0 1
    outer loop
      vertex -22.3 2.20001 2
      vertex 24.5 0 2
      vertex 22.3 2.20001 2
    endloop
  endfacet
  facet normal 0 0 1
    outer loop
      vertex -22.3 2.20001 2
      vertex -24.5 0 2
      vertex 24.5 0 2
    endloop
  endfacet
  facet normal 0 0 1
    outer loop
      vertex -24.5 0 2
      vertex -22.3 2.20001 2
      vertex -24.5 74 2
    endloop
  endfacet
  facet normal -0 0 1
    outer loop
      vertex -21.1 70.6 2
      vertex 21.1 3.40001 2
      vertex 21.1 70.6 2
    endloop
  endfacet
  facet normal 0 0 1
    outer loop
      vertex 21.1 3.40001 2
      vertex -21.1 70.6 2
      vertex -21.1 3.40001 2
    endloop
  endfacet
  facet normal -1 0 0
    outer loop
      vertex -24.5 0 0
      vertex -24.5 74 2
      vertex -24.5 74 0
    endloop
  endfacet
  facet normal -1 -0 0
    outer loop
      vertex -24.5 74 2
      vertex -24.5 0 0
      vertex -24.5 0 2
    endloop
  endfacet
  facet normal 0 1 -0
    outer loop
      vertex 24.5 74 0
      vertex -24.5 74 2
      vertex 24.5 74 2
    endloop
  endfacet
  facet normal 0 1 0
    outer loop
      vertex -24.5 74 2
      vertex 24.5 74 0
      vertex -24.5 74 0
    endloop
  endfacet
  facet normal 0 -1 0
    outer loop
      vertex -24.5 0 0
      vertex 24.5 0 2
      vertex -24.5 0 2
    endloop
  endfacet
  facet normal 0 -1 -0
    outer loop
      vertex 24.5 0 2
      vertex -24.5 0 0
      vertex 24.5 0 0
    endloop
  endfacet
  facet normal 0 0 1
    outer loop
      vertex 22.7 72.2 7
      vertex 21.1 70.6 7
      vertex 22.7 1.8 7
    endloop
  endfacet
  facet normal 0 0 1
    outer loop
      vertex 22.7 72.2 7
      vertex -21.1 70.6 7
      vertex 21.1 70.6 7
    endloop
  endfacet
  facet normal 0 0 1
    outer loop
      vertex -21.1 70.6 7
      vertex -22.7 72.2 7
      vertex -21.1 3.40001 7
    endloop
  endfacet
  facet normal -0 0 1
    outer loop
      vertex -22.7 72.2 7
      vertex -21.1 70.6 7
      vertex 22.7 72.2 7
    endloop
  endfacet
  facet normal -0 0 1
    outer loop
      vertex 21.1 3.40001 7
      vertex 22.7 1.8 7
      vertex 21.1 70.6 7
    endloop
  endfacet
  facet normal -0 0 1
    outer loop
      vertex -21.1 3.40001 7
      vertex 22.7 1.8 7
      vertex 21.1 3.40001 7
    endloop
  endfacet
  facet normal 0 0 1
    outer loop
      vertex -21.1 3.40001 7
      vertex -22.7 1.8 7
      vertex 22.7 1.8 7
    endloop
  endfacet
  facet normal 0 0 1
    outer loop
      vertex -22.7 1.8 7
      vertex -21.1 3.40001 7
      vertex -22.7 72.2 7
    endloop
  endfacet
  facet normal 0 1 -0
    outer loop
      vertex 22.3 71.8 2
      vertex -22.3 71.8 5.4
      vertex 22.3 71.8 5.4
    endloop
  endfacet
  facet normal 0 1 0
    outer loop
      vertex -22.3 71.8 5.4
      vertex 22.3 71.8 2
      vertex -22.3 71.8 2
    endloop
  endfacet
  facet normal -1 0 0
    outer loop
      vertex -22.3 2.20001 2
      vertex -22.3 71.8 5.4
      vertex -22.3 71.8 2
    endloop
  endfacet
  facet normal -1 -0 0
    outer loop
      vertex -22.3 71.8 5.4
      vertex -22.3 2.20001 2
      vertex -22.3 2.20001 5.4
    endloop
  endfacet
  facet normal 0 -1 0
    outer loop
      vertex -22.3 2.20001 2
      vertex 22.3 2.20001 5.4
      vertex -22.3 2.20001 5.4
    endloop
  endfacet
  facet normal 0 -1 -0
    outer loop
      vertex 22.3 2.20001 5.4
      vertex -22.3 2.20001 2
      vertex 22.3 2.20001 2
    endloop
  endfacet
  facet normal 1 -0 0
    outer loop
      vertex 22.3 2.20001 5.4
      vertex 22.3 71.8 2
      vertex 22.3 71.8 5.4
    endloop
  endfacet
  facet normal 1 0 0
    outer loop
      vertex 22.3 71.8 2
      vertex 22.3 2.20001 5.4
      vertex 22.3 2.20001 2
    endloop
  endfacet
  facet normal 1 -0 0
    outer loop
      vertex -21.1 3.40001 7
      vertex -21.1 70.6 2
      vertex -21.1 70.6 7
    endloop
  endfacet
  facet normal 1 0 0
    outer loop
      vertex -21.1 70.6 2
      vertex -21.1 3.40001 7
      vertex -21.1 3.40001 2
    endloop
  endfacet
  facet normal 0 -1 0
    outer loop
      vertex -21.1 70.6 2
      vertex 21.1 70.6 7
      vertex -21.1 70.6 7
    endloop
  endfacet
  facet normal 0 -1 -0
    outer loop
      vertex 21.1 70.6 7
      vertex -21.1 70.6 2
      vertex 21.1 70.6 2
    endloop
  endfacet
  facet normal -1 0 0
    outer loop
      vertex 21.1 3.40001 2
      vertex 21.1 70.6 7
      vertex 21.1 70.6 2
    endloop
  endfacet
  facet normal -1 -0 0
    outer loop
      vertex 21.1 70.6 7
      vertex 21.1 3.40001 2
      vertex 21.1 3.40001 7
    endloop
  endfacet
  facet normal 0 1 -0
    outer loop
      vertex 21.1 3.40001 2
      vertex -21.1 3.40001 7
      vertex 21.1 3.40001 7
    endloop
  endfacet
  facet normal 0 1 0
    outer loop
      vertex -21.1 3.40001 7
      vertex 21.1 3.40001 2
      vertex -21.1 3.40001 2
    endloop
  endfacet
  facet normal 0 0 -1
    outer loop
      vertex 22.7 1.8 5.4
      vertex 22.3 2.20001 5.4
      vertex 22.7 72.2 5.4
    endloop
  endfacet
  facet normal 0 0 -1
    outer loop
      vertex 22.7 1.8 5.4
      vertex -22.3 2.20001 5.4
      vertex 22.3 2.20001 5.4
    endloop
  endfacet
  facet normal -0 0 -1
    outer loop
      vertex -22.3 2.20001 5.4
      vertex -22.7 1.8 5.4
      vertex -22.3 71.8 5.4
    endloop
  endfacet
  facet normal 0 0 -1
    outer loop
      vertex -22.7 1.8 5.4
      vertex -22.3 2.20001 5.4
      vertex 22.7 1.8 5.4
    endloop
  endfacet
  facet normal 0 0 -1
    outer loop
      vertex 22.3 71.8 5.4
      vertex 22.7 72.2 5.4
      vertex 22.3 2.20001 5.4
    endloop
  endfacet
  facet normal 0 0 -1
    outer loop
      vertex -22.3 71.8 5.4
      vertex 22.7 72.2 5.4
      vertex 22.3 71.8 5.4
    endloop
  endfacet
  facet normal 0 0 -1
    outer loop
      vertex -22.3 71.8 5.4
      vertex -22.7 72.2 5.4
      vertex 22.7 72.2 5.4
    endloop
  endfacet
  facet normal 0 0 -1
    outer loop
      vertex -22.7 72.2 5.4
      vertex -22.3 71.8 5.4
      vertex -22.7 1.8 5.4
    endloop
  endfacet
  facet normal 0 1 -0
    outer loop
      vertex 22.7 72.2 5.4
      vertex -22.7 72.2 7
      vertex 22.7 72.2 7
    endloop
  endfacet
  facet normal 0 1 0
    outer loop
      vertex -22.7 72.2 7
      vertex 22.7 72.2 5.4
      vertex -22.7 72.2 5.4
    endloop
  endfacet
  facet normal -1 0 0
    outer loop
      vertex -22.7 1.8 5.4
      vertex -22.7 72.2 7
      vertex -22.7 72.2 5.4
    endloop
  endfacet
  facet normal -1 -0 0
    outer loop
      vertex -22.7 72.2 7
      vertex -22.7 1.8 5.4
      vertex -22.7 1.8 7
    endloop
  endfacet
  facet normal 0 -1 0
    outer loop
      vertex -22.7 1.8 5.4
      vertex 22.7 1.8 7
      vertex -22.7 1.8 7
    endloop
  endfacet
  facet normal 0 -1 -0
    outer loop
      vertex 22.7 1.8 7
      vertex -22.7 1.8 5.4
      vertex 22.7 1.8 5.4
    endloop
  endfacet
  facet normal 1 -0 0
    outer loop
      vertex 22.7 1.8 7
      vertex 22.7 72.2 5.4
      vertex 22.7 72.2 7
    endloop
  endfacet
  facet normal 1 0 0
    outer loop
      vertex 22.7 72.2 5.4
      vertex 22.7 1.8 7
      vertex 22.7 1.8 5.4
    endloop
  endfacet
endsolid OpenSCAD_Model
